<svg width="16" height="14" viewBox="0 0 16 14" fill="none" xmlns="http://www.w3.org/2000/svg">
<path d="M0.744208 10.2057L2.87907 11.1051L3.73049 13.2366C3.91449 13.6983 4.36135 14 4.85849 14C5.35564 14 5.80135 13.6971 5.98649 13.2366L6.83335 11.1177L8.95221 10.2708C9.41392 10.0868 9.71564 9.63999 9.71564 9.14285C9.71564 8.64571 9.41278 8.19999 8.95221 8.01485L6.83335 7.16799L5.98649 5.04913C5.80021 4.58856 5.35335 4.28571 4.85735 4.28571C4.36135 4.28571 3.91449 4.58856 3.72935 5.04913L2.88707 7.15542L0.784208 7.95199C0.320208 8.12799 0.00934957 8.56913 0.000206713 9.06513C-0.00893614 9.56228 0.285923 10.0137 0.743066 10.2068L0.744208 10.2057Z" fill="black" style="fill:black;fill-opacity:1;"/>
<path d="M9.66807 4.17882L11.1748 4.81371L11.7757 6.31825C11.9056 6.64417 12.221 6.85714 12.5719 6.85714C12.9227 6.85714 13.2373 6.64336 13.368 6.31825L13.9657 4.82259L15.4611 4.22481C15.787 4.09492 16 3.7795 16 3.42857C16 3.07765 15.7862 2.76303 15.4611 2.63234L13.9657 2.03455L13.368 0.538891C13.2365 0.213782 12.9211 0 12.5711 0C12.221 0 11.9056 0.213782 11.7749 0.538891L11.1805 2.02568L9.6963 2.58797C9.36882 2.7122 9.14942 3.0236 9.14297 3.37371C9.13652 3.72464 9.34462 4.04329 9.66727 4.17963L9.66807 4.17882Z" fill="black" style="fill:black;fill-opacity:1;"/>
</svg>
