<svg width="9" height="16" viewBox="0 0 9 16" fill="none" xmlns="http://www.w3.org/2000/svg">
<path d="M4.68896 0.509024C5.03361 -0.016145 5.73205 -0.158049 6.24901 0.192064C6.76598 0.542176 6.90567 1.2517 6.56102 1.77686L3.22669 6.85716H7.87498C8.28987 6.85716 8.67127 7.08934 8.86704 7.46094C9.06268 7.8325 9.0411 8.28331 8.81101 8.63392L4.31104 15.491C3.96639 16.0161 3.26795 16.158 2.75099 15.8079C2.23402 15.4578 2.09433 14.7483 2.43898 14.2231L5.77331 9.14284H1.12502C0.710126 9.14284 0.328729 8.91066 0.132959 8.53906C-0.0626784 8.1675 -0.0411032 7.71669 0.188989 7.36608L4.68896 0.509024Z" fill="black" style="fill:black;fill-opacity:1;"/>
</svg>
