<svg width="16" height="13" viewBox="0 0 16 13" fill="none" xmlns="http://www.w3.org/2000/svg">
<path d="M9.82014 0.0318365C9.39511 -0.0925519 8.95257 0.158763 8.83006 0.590313L5.62981 11.9629C5.50731 12.3945 5.75482 12.8438 6.17986 12.9682C6.60489 13.0926 7.04742 12.8412 7.16994 12.4097L10.3702 1.03709C10.4927 0.605542 10.2452 0.156225 9.82014 0.0318365ZM11.8353 3.08061C11.5228 3.39792 11.5228 3.91324 11.8353 4.23056L14.068 6.5L11.8328 8.76944C11.5203 9.08676 11.5203 9.60208 11.8328 9.91939C12.1453 10.2367 12.6529 10.2367 12.9654 9.91939L15.7656 7.07624C16.0781 6.75893 16.0781 6.24361 15.7656 5.92629L12.9654 3.08314C12.6529 2.76583 12.1453 2.76583 11.8328 3.08314L11.8353 3.08061ZM4.1672 3.08061C3.85468 2.76329 3.34714 2.76329 3.03461 3.08061L0.234392 5.92376C-0.0781307 6.24107 -0.0781307 6.75639 0.234392 7.07371L3.03461 9.91685C3.34714 10.2342 3.85468 10.2342 4.1672 9.91685C4.47973 9.59954 4.47972 9.08422 4.1672 8.7669L1.93202 6.5L4.1672 4.23056C4.47972 3.91324 4.47972 3.39792 4.1672 3.08061Z" fill="black" style="fill:black;fill-opacity:1;"/>
</svg>
